<svg width="14" height="16" viewBox="0 0 14 16" fill="none" xmlns="http://www.w3.org/2000/svg">
<path d="M9.85 10.1C9.95 10.15 10 10.2167 10 10.3C10 10.45 9.925 10.65 9.775 10.9C9.64167 11.1333 9.43333 11.3583 9.15 11.575C8.88333 11.7917 8.55 11.9833 8.15 12.15C7.76667 12.3 7.325 12.375 6.825 12.375C5.79167 12.375 4.96667 12.0833 4.35 11.5C3.73333 10.9 3.425 10.1167 3.425 9.15V6.8C3.425 5.85 3.725 5.08333 4.325 4.5C4.94167 3.91667 5.775 3.625 6.825 3.625C7.325 3.625 7.76667 3.70833 8.15 3.875C8.55 4.025 8.88333 4.20833 9.15 4.425C9.43333 4.64167 9.65 4.86667 9.8 5.1C9.95 5.33333 10.025 5.51667 10.025 5.65C10.025 5.71667 9.96667 5.775 9.85 5.825L8.55 6.475C8.51667 6.49167 8.48333 6.5 8.45 6.5C8.4 6.5 8.33333 6.45833 8.25 6.375C8.01667 6.10833 7.8 5.88333 7.6 5.7C7.41667 5.5 7.15833 5.4 6.825 5.4C6.39167 5.4 6.04167 5.53333 5.775 5.8C5.525 6.06667 5.4 6.4 5.4 6.8V9.15C5.4 9.55 5.525 9.88333 5.775 10.15C6.04167 10.4167 6.39167 10.55 6.825 10.55C7.15833 10.55 7.41667 10.45 7.6 10.25C7.8 10.05 8.01667 9.81667 8.25 9.55C8.33333 9.46667 8.4 9.425 8.45 9.425C8.48333 9.425 8.51667 9.43333 8.55 9.45L9.85 10.1ZM11.85 4.675C11.85 3.89167 11.5917 3.25833 11.075 2.775C10.5583 2.29167 9.86667 2.05 9 2.05H4.7C3.8 2.05 3.09167 2.29167 2.575 2.775C2.075 3.25833 1.825 3.89167 1.825 4.675V11.575C1.825 12.3583 2.075 12.9917 2.575 13.475C3.09167 13.9583 3.8 14.2 4.7 14.2H9C9.88333 14.2 10.575 13.9583 11.075 13.475C11.5917 12.9917 11.85 12.3583 11.85 11.575V4.675ZM13.65 11.575C13.65 12.2417 13.5333 12.85 13.3 13.4C13.0833 13.9333 12.775 14.4 12.375 14.8C11.975 15.1833 11.4833 15.4833 10.9 15.7C10.3333 15.9 9.7 16 9 16H4.7C4 16 3.35833 15.9 2.775 15.7C2.20833 15.4833 1.71667 15.1833 1.3 14.8C0.9 14.4 0.591667 13.9333 0.375 13.4C0.158333 12.85 0.0500001 12.2417 0.0500001 11.575V4.675C0.0500001 4.00833 0.158333 3.40833 0.375 2.875C0.591667 2.325 0.9 1.85833 1.3 1.475C1.71667 1.09167 2.20833 0.791666 2.775 0.574999C3.35833 0.358332 4 0.249999 4.7 0.249999H9C9.7 0.249999 10.3333 0.358332 10.9 0.574999C11.4833 0.791666 11.975 1.09167 12.375 1.475C12.775 1.85833 13.0833 2.325 13.3 2.875C13.5333 3.40833 13.65 4.00833 13.65 4.675V11.575Z" fill="#F5F5F5"/>
</svg>
