<svg width="16" height="16" viewBox="0 0 16 16" fill="none" xmlns="http://www.w3.org/2000/svg">
<path d="M3.3 15.75C3.3 15.9167 3.21667 16 3.05 16H0.7C0.533333 16 0.45 15.9167 0.45 15.75V4.8C0.45 4.63333 0.533333 4.55 0.7 4.55H3.05C3.21667 4.55 3.3 4.63333 3.3 4.8V15.75ZM3.55 1.675C3.55 2.125 3.38333 2.51667 3.05 2.85C2.71667 3.18333 2.325 3.35 1.875 3.35C1.40833 3.35 1.00833 3.19167 0.675 2.875C0.358333 2.54167 0.2 2.14167 0.2 1.675C0.2 1.20833 0.358333 0.816666 0.675 0.5C1.00833 0.166666 1.40833 -1.13249e-06 1.875 -1.13249e-06C2.325 -1.13249e-06 2.71667 0.166666 3.05 0.5C3.38333 0.833333 3.55 1.225 3.55 1.675ZM15.5117 15.75C15.5117 15.9167 15.4284 16 15.2617 16H12.8867C12.7201 16 12.6367 15.9167 12.6367 15.75V8.95C12.6367 8.45 12.4701 8.03333 12.1367 7.7C11.8034 7.35 11.3784 7.175 10.8617 7.175C10.3284 7.175 9.89505 7.35 9.56172 7.7C9.22839 8.03333 9.06172 8.45 9.06172 8.95V15.75C9.06172 15.9167 8.97839 16 8.81172 16H6.46172C6.29505 16 6.21172 15.9167 6.21172 15.75V4.8C6.21172 4.63333 6.29505 4.55 6.46172 4.55H8.58672C8.68672 4.55 8.75339 4.575 8.78672 4.625C8.82005 4.675 8.84505 4.73333 8.86172 4.8C8.87839 4.86667 8.89505 4.925 8.91172 4.975C8.92839 5.025 8.96172 5.05 9.01172 5.05C9.07839 5.05 9.17005 5.025 9.28672 4.975C9.40339 4.925 9.54505 4.86667 9.71172 4.8C9.87839 4.73333 10.0701 4.675 10.2867 4.625C10.5201 4.575 10.7784 4.55 11.0617 4.55C11.6951 4.55 12.2784 4.65833 12.8117 4.875C13.3617 5.09167 13.8367 5.39167 14.2367 5.775C14.6367 6.15833 14.9451 6.625 15.1617 7.175C15.3951 7.70833 15.5117 8.3 15.5117 8.95V15.75Z" fill="#0F1326"/>
</svg>
