<?xml version="1.0" encoding="utf-8"?>
<!-- Generator: Adobe Illustrator 25.4.1, SVG Export Plug-In . SVG Version: 6.00 Build 0)  -->
<svg version="1.1" id="Layer_1" xmlns="http://www.w3.org/2000/svg" xmlns:xlink="http://www.w3.org/1999/xlink" x="0px" y="0px"
	 width="299.9px" height="97.8px" viewBox="0 0 299.9 97.8" style="enable-background:new 0 0 299.9 97.8;" xml:space="preserve">
<style type="text/css">
	.st0{fill:#FFFFFF;}
</style>
<g id="Layer_7">
	<path class="st0" d="M75.1,2h8.3v41.2h-8.8V16l-9.8,13.8h-7l-10-13.4v26.8H39V2h8.4l14,19L75.1,2z"/>
	<path class="st0" d="M93.7,2h25.7v8h-16.9v7.4h14.8v8h-14.8v9.7h16.9v8H93.7V2z"/>
	<path class="st0" d="M157.9,2h8.8v41.2h-8.4l-19.7-26.9v26.9h-8.8V2h8.2l19.9,27L157.9,2z"/>
	<path class="st0" d="M175.6,2h29.8v8h-10.5v33.2h-8.8V10h-10.5V2z"/>
	<path class="st0" d="M233.7,1.5c2.7,0,5.4,0.6,7.9,1.7c2.4,1.1,4.6,2.7,6.5,4.6c1.8,2,3.3,4.2,4.4,6.7c1.1,2.6,1.6,5.4,1.6,8.2
		c0,2.8-0.5,5.6-1.6,8.2c-1,2.5-2.5,4.8-4.4,6.8c-1.8,1.9-4,3.5-6.5,4.6c-5,2.3-10.8,2.3-15.8,0c-2.4-1.1-4.6-2.7-6.4-4.6
		c-1.8-2-3.3-4.3-4.3-6.8c-1.1-2.6-1.6-5.4-1.6-8.2c0-2.8,0.5-5.6,1.6-8.2c1-2.5,2.5-4.8,4.3-6.7c1.8-1.9,4-3.5,6.4-4.6
		C228.3,2,231,1.4,233.7,1.5z M233.7,35.2c1.5,0,3.1-0.3,4.5-1c1.4-0.7,2.6-1.6,3.6-2.7c1.1-1.2,1.9-2.5,2.5-4
		c0.6-1.6,0.9-3.2,0.9-4.9c0-1.7-0.3-3.3-0.9-4.9c-0.6-1.5-1.4-2.8-2.5-4c-1-1.1-2.3-2-3.6-2.7c-2.8-1.3-6.1-1.3-8.9,0
		c-1.4,0.7-2.6,1.6-3.6,2.7c-1.1,1.2-1.9,2.5-2.5,4c-0.6,1.6-0.9,3.2-0.9,4.9c0,1.7,0.3,3.3,0.9,4.9c0.6,1.5,1.4,2.8,2.5,4
		c1,1.1,2.3,2,3.6,2.7C230.7,34.8,232.2,35.2,233.7,35.2L233.7,35.2z"/>
	<path class="st0" d="M293.1,14.3c0,1.3-0.2,2.5-0.5,3.8c-0.4,1.2-0.9,2.2-1.6,3.2c-0.7,1-1.5,1.9-2.4,2.6c-0.9,0.7-1.9,1.4-3,1.8
		l13.6,17.5H289l-12.7-16.6h-3.9v16.6h-8.8V2h17.8c1.6,0,3.2,0.3,4.6,1c1.4,0.6,2.7,1.5,3.8,2.6c1.1,1.1,1.9,2.4,2.5,3.9
		C292.8,11,293.1,12.6,293.1,14.3z M280.2,18.6c1.1,0,2.2-0.4,2.9-1.2c0.8-0.8,1.2-1.9,1.2-3.1c0-1.1-0.4-2.2-1.2-3
		c-0.7-0.8-1.8-1.3-2.9-1.3h-7.8v8.5L280.2,18.6z"/>
	<path class="st0" d="M19,55.2c1.6,0,3.1,0.3,4.6,1c1.4,0.6,2.7,1.5,3.8,2.6c2.2,2.3,3.5,5.4,3.5,8.7c0,1.6-0.3,3.3-0.9,4.8
		c-0.6,1.4-1.5,2.8-2.5,3.9c-1.1,1.1-2.3,2-3.7,2.6c-1.4,0.7-3,1-4.6,1h-9v16.6H1.2V55.2H19z M17.9,71.8c1.1,0,2.2-0.4,2.9-1.2
		c0.8-0.8,1.3-1.9,1.2-3c0-1.1-0.4-2.2-1.2-3c-0.8-0.8-1.8-1.3-2.9-1.2h-7.8v8.5L17.9,71.8z"/>
	<path class="st0" d="M47.8,88.4h16.9v8H39V55.2h8.8L47.8,88.4z"/>
	<path class="st0" d="M103,55.2l17.2,41.2h-9.5l-3.7-8.8H89.5l-3.7,8.8h-9.6l17.2-41.1H103z M103.6,79.6l-5.4-12.9l-5.4,12.9H103.6z
		"/>
	<path class="st0" d="M157.2,55.2h8.8v41.1h-8.4l-19.7-26.9v26.9h-8.8V55.2h8.2l19.9,27V55.2z"/>
</g>
</svg>
